<?xml version="1.0" encoding="UTF-8" standalone="no"?>
<!DOCTYPE svg PUBLIC "-//W3C//DTD SVG 1.1//EN" "http://www.w3.org/Graphics/SVG/1.1/DTD/svg11.dtd">
<svg version="1.1" xmlns="http://www.w3.org/2000/svg" xmlns:xlink="http://www.w3.org/1999/xlink" preserveAspectRatio="xMidYMid meet" viewBox="0 0 640 640" width="1000" height="1000"><defs><path d="M506.19 79.13C511.71 79.13 516.19 83.61 516.19 89.13C516.19 160.73 516.19 365.53 516.19 437.13C516.19 442.65 511.71 447.13 506.19 447.13C447.99 447.13 283.39 447.13 225.19 447.13C219.67 447.13 215.19 442.65 215.19 437.13C215.19 365.53 215.19 160.73 215.19 89.13C215.19 83.61 219.67 79.13 225.19 79.13C283.39 79.13 447.99 79.13 506.19 79.13Z" id="bzpB4sgt0"></path><linearGradient id="gradienta1C1lUgoJI" gradientUnits="userSpaceOnUse" x1="365.69" y1="79.13" x2="365.69" y2="447.13"><stop style="stop-color: #ffffff;stop-opacity: 1" offset="0%"></stop><stop style="stop-color: #010000;stop-opacity: 1" offset="100%"></stop></linearGradient><path d="M283.61 263.88L291.91 268.88L294.71 288.69L296.52 292.34L296.52 297.56L297.01 304.77L296.77 308.13L294.58 309.66L294.46 309.74L294.33 309.81L294.21 309.87L294.08 309.92L293.95 309.97L293.81 310L293.68 310.03L293.54 310.05L293.4 310.06L293.26 310.07L293.13 310.06L292.99 310.05L292.85 310.03L292.72 310L292.59 309.96L292.45 309.91L292.33 309.86L292.2 309.79L292.08 309.72L291.96 309.64L291.84 309.56L289.02 307.25L284.32 304.77L279.89 302.06L275.46 298.9L271.86 295.29L269.37 291.23L266.6 282.2L265.77 277.69L266.88 273.17L268.82 268.88L270.48 264.37L273.52 260.31L276.33 259.77L279.07 260.31L283.61 263.88ZM454.12 248.31L456.37 249.56L457.87 251.69L458.87 254.06L459.75 256.44L460.5 258.94L461.37 261.31L461.25 263.94L461.12 266.44L460.75 268.94L459.87 271.31L458.75 273.69L457.62 275.94L457 278.56L456.37 281.06L455.87 283.56L455.62 288.56L455.37 291.19L455 293.69L454.12 296.19L452.5 298.44L450.62 300.31L448.62 301.81L445.16 301.81L440.66 287.88L440.66 262.19L447.54 247.52L451.62 247.94L454.12 248.31Z" id="acBgLWx5d"></path><path d="M412.08 187.73C414.14 188.43 414.41 191.78 416.66 194.7C418.91 197.61 422.98 205.91 425.07 207.63C428.22 210.22 431.5 221.73 433.51 225.02C435.52 228.32 436.66 234.05 438.23 241.13C440.14 249.68 440.28 253 440.28 270.25C440.28 288.14 440.97 289.69 438.57 293.08C436.4 296.14 435.09 300.68 429.93 309.03C419.08 326.59 423.62 323.47 415.95 329.22C408.27 334.97 412.11 333.73 409.99 334.18C408.3 334.54 393.82 347.92 392.05 348.16C386.36 348.92 380.26 343.25 373.78 343.25C366.06 343.25 360.85 345.51 357.11 347.12C353.51 348.67 351.28 349.59 349.49 348.85C348.37 348.4 347.42 347.13 346.42 344.6C344.85 340.61 339.95 342.47 336.67 335.88C334.78 332.07 334.08 330.83 330.11 322.59C329.05 320.4 326.91 318.31 324.71 313.56C322.51 308.81 322.32 305.42 318.88 303.38C317.85 302.77 315.94 303.41 313.75 303.97C308.65 305.29 302.05 307.67 301.55 303.38C300.49 294.19 294.44 287.89 294.29 286C294.16 284.33 292.97 278.55 292.92 273.66C292.88 269.32 290.71 261.34 291.04 259.65C291.75 256.06 294.29 254.97 295.25 250.93C296.44 245.89 296.84 240.72 298 235.14C298.7 231.79 297.11 222.64 298 219.21C300.46 209.68 302.59 201.03 304.39 193.24C309.65 188.02 313.21 184.62 315.07 183.04C317.31 181.13 319.5 179.39 321.66 177.79C324.41 175.76 329.1 179.36 331.7 177.79C334.21 176.29 341.83 190.33 344.09 188.95C347.35 186.95 359.65 194.52 361.81 191.02C363.54 188.22 379.42 187.4 379.35 183.04C379.3 179.92 381.64 180.3 384.81 179.5C390.45 178.08 398.7 177.25 400.78 177.25C407.69 177.25 407.23 186.09 412.08 187.73Z" id="b5797nC0"></path><path d="M444.6 297.13L444.85 302.38L444.1 307.38L442.85 312.38L441.6 317.63L440.85 322.88L440.85 333.38L439.35 343.38L438.35 348.63L436.35 353.38L434.6 358.13L431.6 362.38L427.1 371.38L423.6 375.13L419.6 378.63L415.35 382.38L411.35 385.38L406.6 388.13L402.35 390.88L397.35 393.13L392.6 395.13L387.85 396.88L382.35 398.88L377.35 399.13L372.1 398.88L367.1 398.88L361.85 397.88L356.85 397.13L351.35 396.63L346.35 395.88L341.6 393.88L337.1 391.38L332.1 389.13L326.6 387.38L322.1 385.13L317.35 383.38L313.85 379.38L311.85 374.63L310.85 369.63L310.6 364.63L311.6 359.63L311.6 354.63L309.85 349.88L307.85 344.88L305.1 340.38L302.6 335.88L299.85 331.38L297.6 326.88L297.1 321.63L297.1 311.38L297.6 306.38L297.6 301.13L297.1 291.13L300.27 297.97L301.21 303.91L302.4 305.78L305.77 306.66L317.96 303.72L320.65 305.34L327.08 318.97L329.33 322.16L337.1 337.97L339.52 340.59L344.96 343.38L345.88 344.47L347.88 348.63L349.75 349.72L351.94 349.88L354.69 349.06L357.38 347.66L361.19 346.34L364.44 345.16L369.63 344.16L373.69 344.16L377.35 344.47L388.86 348.91L391.48 349.06L393.86 348.28L410.04 334.47L411.86 333.78L420.48 326.66L424.18 320L428.37 312.66L431.74 306.66L434.12 301.81L438.99 293.41L440.24 291.13L440.64 289.91L440.6 287.88L442.85 292.38L444.6 297.13ZM354.31 122.64L358.79 124.91L363.77 126.16L373.96 126.16L378.94 126.42L384.41 126.42L389.38 127.42L394.11 129.18L399.08 130.7L404.3 132.96L409.28 135.23L414 137.74L418.48 140.51L422.46 143.53L425.94 148.06L428.68 152.59L431.41 157.38L433.65 162.16L435.89 167.19L437.13 172.23L437.88 177.76L438.87 183.3L442.36 187.33L445.84 191.86L451.31 200.92L453.55 205.45L457.03 215.02L458.77 220.05L458.52 225.09L455.79 229.87L453.05 234.15L450.56 238.68L448.33 243.46L446.58 248.24L444.35 253.03L441.86 257.56L440.62 262.59L440.82 259.78L440.3 247.22L436.13 228.78L433.65 223.78L427.36 208.97L424.99 206.41L416.86 193.59L413.36 187.47L410.68 186.16L405.99 178.53L402.68 176.78L385.92 178.53L379.49 180.09L379.11 181.09L378.61 183.66L372.49 186.78L363.42 189.03L362.17 189.78L361.24 190.1L360.67 190.91L359.74 191.28L347.05 187.91L344.89 187.91L343.39 188.34L338.45 182.47L337.7 181.66L337.01 180.91L336.39 180.34L335.95 179.78L335.58 178.97L334.26 178.22L333.51 177.41L332.83 176.78L331.64 176.78L330.7 177.15L329.89 177.41L328.58 177.15L327.39 176.78L326.08 176.78L324.52 176.28L322.83 176.28L321.77 176.47L321.27 177.15L303.77 193.16L297.01 220.75L297.5 235.42L296.17 240.92L295 247.74L293.67 253.58L292.16 255.28L292.07 255.39L291.97 255.5L291.88 255.62L291.79 255.73L291.71 255.85L291.62 255.97L291.54 256.09L291.46 256.21L291.38 256.33L291.3 256.45L291.23 256.58L291.16 256.7L291.09 256.83L291.02 256.96L290.96 257.09L290.89 257.22L290.83 257.35L290.78 257.49L290.72 257.62L290.67 257.75L290.62 257.89L290.57 258.03L290.53 258.16L290.48 258.3L290.44 258.44L290.41 258.58L290.37 258.72L290.34 258.86L290.31 259L290.28 259.15L290.26 259.29L290.23 259.43L290.21 259.58L290.2 259.72L290.18 259.87L290.17 260.01L290.16 260.16L290.15 260.3L290.15 260.45L290.15 260.6L290.15 260.92L291.39 267.63L286.67 265.61L282.69 262.34L278.71 259.32L274.23 256.55L271 252.52L268.76 247.74L267.27 242.45L266.77 237.17L266.52 231.88L266.77 226.34L267.52 221.31L268.01 216.28L268.76 210.99L269.51 205.96L271.5 195.38L271.99 190.1L272.74 185.06L273.49 179.53L274.23 174.49L275.23 169.46L276.97 164.42L279.21 159.89L282.44 155.61L286.17 152.09L294.13 145.55L298.36 142.53L302.58 139.76L306.81 136.74L311.04 133.97L315.77 131.45L320.24 129.18L324.72 126.42L329.69 124.15L334.67 122.64L339.64 121.38L344.62 120.37L349.59 120.88L354.31 122.64Z" id="c13Ea88rtf"></path></defs><g><g><g><use xlink:href="#bzpB4sgt0" opacity="1" fill="url(#gradienta1C1lUgoJI)"></use><use xlink:href="#bzpB4sgt0" opacity="1" fill="#e5989a" fill-opacity="0.85"></use><g><use xlink:href="#bzpB4sgt0" opacity="1" fill-opacity="0" stroke="#3c0e36" stroke-width="5" stroke-opacity="1"></use></g></g><g><g><filter id="shadow13665291" x="256.77" y="238.52" width="214.6" height="81.55" filterUnits="userSpaceOnUse" primitiveUnits="userSpaceOnUse"><feFlood></feFlood><feComposite in2="SourceAlpha" operator="in"></feComposite><feGaussianBlur stdDeviation="1"></feGaussianBlur><feOffset dx="1" dy="1" result="afterOffset"></feOffset><feFlood flood-color="#000000" flood-opacity="0.5"></feFlood><feComposite in2="afterOffset" operator="in"></feComposite><feMorphology operator="dilate" radius="1"></feMorphology><feComposite in2="SourceAlpha" operator="out"></feComposite></filter><path d="M283.61 263.88L291.91 268.88L294.71 288.69L296.52 292.34L296.52 297.56L297.01 304.77L296.77 308.13L294.58 309.66L294.46 309.74L294.33 309.81L294.21 309.87L294.08 309.92L293.95 309.97L293.81 310L293.68 310.03L293.54 310.05L293.4 310.06L293.26 310.07L293.13 310.06L292.99 310.05L292.85 310.03L292.72 310L292.59 309.96L292.45 309.91L292.33 309.86L292.2 309.79L292.08 309.72L291.96 309.64L291.84 309.56L289.02 307.25L284.32 304.77L279.89 302.06L275.46 298.9L271.86 295.29L269.37 291.23L266.6 282.2L265.77 277.69L266.88 273.17L268.82 268.88L270.48 264.37L273.52 260.31L276.33 259.77L279.07 260.31L283.61 263.88ZM454.12 248.31L456.37 249.56L457.87 251.69L458.87 254.06L459.75 256.44L460.5 258.94L461.37 261.31L461.25 263.94L461.12 266.44L460.75 268.94L459.87 271.31L458.75 273.69L457.62 275.94L457 278.56L456.37 281.06L455.87 283.56L455.62 288.56L455.37 291.19L455 293.69L454.12 296.19L452.5 298.44L450.62 300.31L448.62 301.81L445.16 301.81L440.66 287.88L440.66 262.19L447.54 247.52L451.62 247.94L454.12 248.31Z" id="d3Fbj4v8YV" fill="white" fill-opacity="1" filter="url(#shadow13665291)"></path></g><use xlink:href="#acBgLWx5d" opacity="1" fill="#ffb4a2" fill-opacity="1"></use><g><use xlink:href="#acBgLWx5d" opacity="1" fill-opacity="0" stroke="#2a352e" stroke-width="1" stroke-opacity="1"></use></g></g><g><g><filter id="shadow7947283" x="282.01" y="168.15" width="168.37" height="190.96" filterUnits="userSpaceOnUse" primitiveUnits="userSpaceOnUse"><feFlood></feFlood><feComposite in2="SourceAlpha" operator="in"></feComposite><feGaussianBlur stdDeviation="1"></feGaussianBlur><feOffset dx="1" dy="1" result="afterOffset"></feOffset><feFlood flood-color="#000000" flood-opacity="0.5"></feFlood><feComposite in2="afterOffset" operator="in"></feComposite><feMorphology operator="dilate" radius="1"></feMorphology><feComposite in2="SourceAlpha" operator="out"></feComposite></filter><path d="M412.08 187.73C414.14 188.43 414.41 191.78 416.66 194.7C418.91 197.61 422.98 205.91 425.07 207.63C428.22 210.22 431.5 221.73 433.51 225.02C435.52 228.32 436.66 234.05 438.23 241.13C440.14 249.68 440.28 253 440.28 270.25C440.28 288.14 440.97 289.69 438.57 293.08C436.4 296.14 435.09 300.68 429.93 309.03C419.08 326.59 423.62 323.47 415.95 329.22C408.27 334.97 412.11 333.73 409.99 334.18C408.3 334.54 393.82 347.92 392.05 348.16C386.36 348.92 380.26 343.25 373.78 343.25C366.06 343.25 360.85 345.51 357.11 347.12C353.51 348.67 351.28 349.59 349.49 348.85C348.37 348.4 347.42 347.13 346.42 344.6C344.85 340.61 339.95 342.47 336.67 335.88C334.78 332.07 334.08 330.83 330.11 322.59C329.05 320.4 326.91 318.31 324.71 313.56C322.51 308.81 322.32 305.42 318.88 303.38C317.85 302.77 315.94 303.41 313.75 303.97C308.65 305.29 302.05 307.67 301.55 303.38C300.49 294.19 294.44 287.89 294.29 286C294.16 284.33 292.97 278.55 292.92 273.66C292.88 269.32 290.71 261.34 291.04 259.65C291.75 256.06 294.29 254.97 295.25 250.93C296.44 245.89 296.84 240.72 298 235.14C298.7 231.79 297.11 222.64 298 219.21C300.46 209.68 302.59 201.03 304.39 193.24C309.65 188.02 313.21 184.62 315.07 183.04C317.31 181.13 319.5 179.39 321.66 177.79C324.41 175.76 329.1 179.36 331.7 177.79C334.21 176.29 341.83 190.33 344.09 188.95C347.35 186.95 359.65 194.52 361.81 191.02C363.54 188.22 379.42 187.4 379.35 183.04C379.3 179.92 381.64 180.3 384.81 179.5C390.45 178.08 398.7 177.25 400.78 177.25C407.69 177.25 407.23 186.09 412.08 187.73Z" id="fUP93UAIz" fill="white" fill-opacity="1" filter="url(#shadow7947283)"></path></g><use xlink:href="#b5797nC0" opacity="1" fill="#ffcdb2" fill-opacity="1"></use><g><use xlink:href="#b5797nC0" opacity="1" fill-opacity="0" stroke="#000000" stroke-width="1" stroke-opacity="1"></use></g></g><g><g><filter id="shadow14903341" x="257.52" y="111.37" width="211.25" height="297.75" filterUnits="userSpaceOnUse" primitiveUnits="userSpaceOnUse"><feFlood></feFlood><feComposite in2="SourceAlpha" operator="in"></feComposite><feGaussianBlur stdDeviation="1"></feGaussianBlur><feOffset dx="1" dy="1" result="afterOffset"></feOffset><feFlood flood-color="#000000" flood-opacity="0.5"></feFlood><feComposite in2="afterOffset" operator="in"></feComposite><feMorphology operator="dilate" radius="1"></feMorphology><feComposite in2="SourceAlpha" operator="out"></feComposite></filter><path d="M444.6 297.13L444.85 302.38L444.1 307.38L442.85 312.38L441.6 317.63L440.85 322.88L440.85 333.38L439.35 343.38L438.35 348.63L436.35 353.38L434.6 358.13L431.6 362.38L427.1 371.38L423.6 375.13L419.6 378.63L415.35 382.38L411.35 385.38L406.6 388.13L402.35 390.88L397.35 393.13L392.6 395.13L387.85 396.88L382.35 398.88L377.35 399.13L372.1 398.88L367.1 398.88L361.85 397.88L356.85 397.13L351.35 396.63L346.35 395.88L341.6 393.88L337.1 391.38L332.1 389.13L326.6 387.38L322.1 385.13L317.35 383.38L313.85 379.38L311.85 374.63L310.85 369.63L310.6 364.63L311.6 359.63L311.6 354.63L309.85 349.88L307.85 344.88L305.1 340.38L302.6 335.88L299.85 331.38L297.6 326.88L297.1 321.63L297.1 311.38L297.6 306.38L297.6 301.13L297.1 291.13L300.27 297.97L301.21 303.91L302.4 305.78L305.77 306.66L317.96 303.72L320.65 305.34L327.08 318.97L329.33 322.16L337.1 337.97L339.52 340.59L344.96 343.38L345.88 344.47L347.88 348.63L349.75 349.72L351.94 349.88L354.69 349.06L357.38 347.66L361.19 346.34L364.44 345.16L369.63 344.16L373.69 344.16L377.35 344.47L388.86 348.91L391.48 349.06L393.86 348.28L410.04 334.47L411.86 333.78L420.48 326.66L424.18 320L428.37 312.66L431.74 306.66L434.12 301.81L438.99 293.41L440.24 291.13L440.64 289.91L440.6 287.88L442.85 292.38L444.6 297.13ZM354.31 122.64L358.79 124.91L363.77 126.16L373.96 126.16L378.94 126.42L384.41 126.42L389.38 127.42L394.11 129.18L399.08 130.7L404.3 132.96L409.28 135.23L414 137.74L418.48 140.51L422.46 143.53L425.94 148.06L428.68 152.59L431.41 157.38L433.65 162.16L435.89 167.19L437.13 172.23L437.88 177.76L438.87 183.3L442.36 187.33L445.84 191.86L451.31 200.92L453.55 205.45L457.03 215.02L458.77 220.05L458.52 225.09L455.79 229.87L453.05 234.15L450.56 238.68L448.33 243.46L446.58 248.24L444.35 253.03L441.86 257.56L440.62 262.59L440.82 259.78L440.3 247.22L436.13 228.78L433.65 223.78L427.36 208.97L424.99 206.41L416.86 193.59L413.36 187.47L410.68 186.16L405.99 178.53L402.68 176.78L385.92 178.53L379.49 180.09L379.11 181.09L378.61 183.66L372.49 186.78L363.42 189.03L362.17 189.78L361.24 190.1L360.67 190.91L359.74 191.28L347.05 187.91L344.89 187.91L343.39 188.34L338.45 182.47L337.7 181.66L337.01 180.91L336.39 180.34L335.95 179.78L335.58 178.97L334.26 178.22L333.51 177.41L332.83 176.78L331.64 176.78L330.7 177.15L329.89 177.41L328.58 177.15L327.39 176.78L326.08 176.78L324.52 176.28L322.83 176.28L321.77 176.47L321.27 177.15L303.77 193.16L297.01 220.75L297.5 235.42L296.17 240.92L295 247.74L293.67 253.58L292.16 255.28L292.07 255.39L291.97 255.5L291.88 255.62L291.79 255.73L291.71 255.85L291.62 255.97L291.54 256.09L291.46 256.21L291.38 256.33L291.3 256.45L291.23 256.58L291.16 256.7L291.09 256.83L291.02 256.96L290.96 257.09L290.89 257.22L290.83 257.35L290.78 257.49L290.72 257.62L290.67 257.75L290.62 257.89L290.57 258.03L290.53 258.16L290.48 258.3L290.44 258.44L290.41 258.58L290.37 258.72L290.34 258.86L290.31 259L290.28 259.15L290.26 259.29L290.23 259.43L290.21 259.58L290.2 259.72L290.18 259.87L290.17 260.01L290.16 260.16L290.15 260.3L290.15 260.45L290.15 260.6L290.15 260.92L291.39 267.63L286.67 265.61L282.69 262.34L278.71 259.32L274.23 256.55L271 252.52L268.76 247.74L267.27 242.45L266.77 237.17L266.52 231.88L266.77 226.34L267.52 221.31L268.01 216.28L268.76 210.99L269.51 205.96L271.5 195.38L271.99 190.1L272.74 185.06L273.49 179.53L274.23 174.49L275.23 169.46L276.97 164.42L279.21 159.89L282.44 155.61L286.17 152.09L294.13 145.55L298.36 142.53L302.58 139.76L306.81 136.74L311.04 133.97L315.77 131.45L320.24 129.18L324.72 126.42L329.69 124.15L334.67 122.64L339.64 121.38L344.62 120.37L349.59 120.88L354.31 122.64Z" id="c1NueHcZWa" fill="white" fill-opacity="1" filter="url(#shadow14903341)"></path></g><use xlink:href="#c13Ea88rtf" opacity="1" fill="#e5989b" fill-opacity="1"></use><g><use xlink:href="#c13Ea88rtf" opacity="1" fill-opacity="0" stroke="#000000" stroke-width="1" stroke-opacity="1"></use></g></g></g></g></svg>