<svg xmlns="http://www.w3.org/2000/svg" xmlns:xlink="http://www.w3.org/1999/xlink" preserveAspectRatio="xMidYMid meet" viewBox="70.463 8.576 461.105 620.568" width="457.11" height="616.57" xmlns:v="https://vecta.io/nano"><defs><path d="M329.82 9.58l1.7.02 1.68.03 3.32.08 1.63.05 1.6.07 1.58.07 3.1.16 1.5.1 1.48.1 1.46.12 1.42.12 1.4.12 1.36.14 1.32.15 1.3.15 1.25.16 1.2.17 1.17.17 1.12.18 1.1.2 1.03.2 1 .2.94.2.9.22.84.22 1.06.33 1.13.38 1.18.42 1.24.47 1.3.52 1.34.57 1.4.6 1.44.64 2.98 1.4 1.55.76 1.57.78 1.6.8 1.62.85 1.65.87 1.67.9 1.68.92 1.7.94 1.7.96 1.7.97 3.4 2 3.38 2.04 1.67 1.04 1.66 1.04 1.64 1.04 1.62 1.05 3.16 2.1 1.53 1.05 1.5 1.04 1.46 1.03 1.42 1.02 1.37 1 1.33 1 1.27.98 1.22.97 1.16.95 1.1.93.48.43.5.43.5.46.5.46.5.48.52.48 1.06 1 1.08 1.04 2.2 2.15.54.55 1.65 1.68.54.56.54.57.54.56.53.56 1.57 1.7.5.56 1 1.1.96 1.08.47.53.45.53.45.52.43.5.42.5.4.5.4.48.38.47.36.46.35.44.35.45.37.47.4.48.4.5.43.52.44.53.46.55.48.56.5.57.5.58.52.6.53.6.54.62 1.13 1.25 1.16 1.28 1.8 1.96 1.24 1.32.63.67.63.66.64.67 1.92 1.98 1.93 1.96.64.64 1.28 1.26.63.62 1.25 1.2.62.58 1.2 1.15 1.52 1.46 1.5 1.46 1.46 1.45 1.44 1.45 1.4 1.43 1.37 1.43 1.34 1.4 1.3 1.4 1.27 1.4 1.24 1.4 1.2 1.37 1.17 1.35 1.14 1.35 1.1 1.33 1.07 1.3 1.03 1.3 1 1.3.96 1.27.92 1.25.9 1.23.84 1.2.8 1.2.76 1.17.73 1.16.68 1.13.65 1.12.6 1.1.57 1.06.52 1.05.47 1.02.44 1 .4.97.34.94.3.92.26.9.2.86.17.84.12.8.07.78.02.74v.2.4l.02.2.04.4.03.2.03.2.04.2.08.4.05.2.05.2.06.2.06.2.06.2.2.6.08.2.08.2.1.2.27.57.2.38.1.18.1.2.22.36.36.5.13.17.12.17.14.16.13.15.13.16.14.15.32.38.33.45.35.52.36.58.37.65.4.7.4.78.4.82.42.9.42.93.43 1 .43 1.03.44 1.07.44 1.1.45 1.16.45 1.2.45 1.22.45 1.26.45 1.28.45 1.3.45 1.33.45 1.35.44 1.37.44 1.4.43 1.4.84 2.82.4 1.43.4 1.42.4 1.43.38 1.42.36 1.42.36 1.4.34 1.4.32 1.4.3 1.37.3 1.35.28 1.33.25 1.3.24 1.28.1.57.1.6.1.62.1.65.1.66.1.7.1.7.1.73.1.74.1.76.1.78.1.8.1.8.1.8.1.83.1.84.1.84.1.86.1.86.18 1.74.08.88.1.88.08.9.1.88.08.9.07.88.08.88.28 3.5.24 3.37.1 1.62.08 1.57.08 1.5.07 1.46.06 1.42.05 1.38.04 1.34.03 1.32v2.55 1.26 1.24l-.03 1.24-.05 1.23-.06 1.24-.08 1.25-.1 1.26-.1 1.28-.12 1.3-.15 1.33-.16 1.37-.18 1.4-.2 1.44-.22 1.5-.24 1.54-.26 1.6-.28 1.66-.3 1.72-.33 1.8-.35 1.87-.38 1.96-.4 2.04-.43 2.12-.45 2.23-.48 2.32-.5 2.43-.53 2.54-.56 2.65-.6 2.77-.62 2.9-.65 3.02-.7 3.16-.2.9-.2.9-.2.88-.38 1.74-.18.85-.2.84-.18.83-.17.82-.18.8-.17.8-.17.77-.16.76-.16.74-.15.73-.15.7-.15.7-.14.67-.14.65-.13.63-.13.6-.12.58-.12.57-.1.54-.1.5-.1.5-.1.46-.1.44-.08.4-.08.38-.06.36-.07.32-.05.3-.05.26-.04.23-.04.2-.02.16-.02.13-.02.1v.06l.01.04v.05l.03.05.08.12.06.07.07.06.07.08.1.08.2.16.1.1.13.1.13.1.13.1.15.1.15.1.17.1.16.1.18.1.18.12.2.1.4.24.2.12.22.12.22.13.23.12.23.13.72.4.26.13.25.13.26.13.27.13.26.13.28.13.27.13.28.13.87.4.82.4 1.52.74.7.35.66.35.63.35.6.34.55.35.52.35.48.36.46.38.42.38.4.4.36.42.34.45.32.47.3.5.26.54.25.56.22.6.2.65.18.7.17.73.15.8.13.84.12.9.1.96.1 1 .08 1.08.07 1.14.07 1.22.06 1.28.05 1.37.04 1.44.05 1.52.04 1.6.04 1.7.03 1.78.1 4.88.02 1.4.04 2.62.01 1.22.02 2.3v2.1l-.02 1.9-.02.9-.02.85v.82l-.04.78-.03.75-.04.72-.05.7-.06.67-.06.65-.06.63-.08.6-.08.6-.1.6-.1.57-.1.57-.1.56-.12.56-.12.55-.28 1.12-.15.57-.16.58-.17.58-.17.6-.2.6-.2.64-.2.65-.2.68-.18.55-.18.54-.18.53-.18.5-.17.5-.36.98-.18.47-.18.46-.36.9-.18.43-.2.43-.2.42-.18.4-.2.4-.2.4-.2.38-.2.4-.2.38-.2.37-.2.36-.2.37-.22.35-.22.36-.23.35-.23.34-.24.35-.24.34-.5.68-.26.33-.27.34-.27.33-.28.34-.3.33-.3.34-.6.67-.3.34-.24.25-.5.54-.25.28-.25.3-.25.3-.26.3-.26.32-.26.3-.52.66-.78 1.02-.52.7-.26.36-.25.35-.26.36-.25.36-.25.37-.5.72-.24.37-.24.36-.23.36-.24.36-.22.36-.23.36-.2.35-.22.36-.2.34-.2.35-.2.34-.2.33-.18.33-.18.32-.17.32-.16.3-.15.3-.74 1.53-.73 1.47-.73 1.42-.72 1.38-.72 1.33-.72 1.28-.72 1.24-.7 1.2L501 427l-.72 1.1-.7 1.05-.72 1.02-.72.96-.72.93-.73.88-.73.84-.74.8-.74.76-.74.72-.76.68-.76.65-.76.6-.78.57-.8.53-.8.5-.8.46-.8.42-.83.4-.84.35-.86.32-.87.3-.88.25-.9.22-.9.2-.93.16-.94.13-.96.1-.98.07-1 .04-1.02.02-1.26-.02-.6-.01-.58-.02-.56-.03-.54-.04-1.02-.1-.48-.07-.47-.07-.45-.08-.44-.1-.42-.1-.4-.1-.4-.13-.38-.13-.38-.14-.36-.16-.34-.17-.34-.18-.33-.2-.33-.2-.3-.22-.6-.48-.58-.54-.56-.6-.27-.33-.27-.34-.27-.35-.26-.37-.26-.4-.27-.4-.26-.43-.26-.44-.27-.46-.53-.98-.1-.2-.1-.17-.1-.16-.08-.14-.1-.1-.07-.1-.08-.06-.07-.04h-.08l-.07.04-.07.08-.07.12-.07.17-.07.22-.07.27-.07.32-.07.4-.08.44-.08.52-.08.58-.17 1.38-.2 1.7-.2 2.03-.1 1.15-.12 1.24-.25 2.78-.3 3.2-.15 1.76-.17 1.87-.35 4.1-.2 2.22-.2 2.35-.43 5.1-.1 1.2-.1 1.2-.12 1.17-.13 1.15-.14 1.14-.15 1.13-.32 2.23-.18 1.1-.2 1.1-.2 1.1-.2 1.08-.22 1.07-.24 1.07-.24 1.06-.26 1.07-.27 1.06-.3 1.06-.3 1.07-.3 1.06-.33 1.07-.34 1.07-.35 1.08-.36 1.08-.78 2.18-.84 2.22-.45 1.13-.46 1.13-.48 1.15-.5 1.17-.5 1.17-.53 1.2-.55 1.2-.56 1.22-.58 1.25-.6 1.26-.62 1.3-.64 1.3-1.26 2.48-.6 1.2-.6 1.16-.6 1.12-.58 1.1-.57 1.05-.57 1.03-.56 1-.55.97-.55.94-.55.92-.54.9-.54.86-.53.84-.54.82-.53.8-.53.77-.54.76-.53.73-.54.72-.54.7-.55.68-.55.67-.55.66-.56.64-.57.63-.57.6-.6.6-.6.6-.6.6-.6.58-.62.57-.64.57-.64.56-.66.55-.68.56-.7.55-.7.55-.72.55-.33.25-.33.26-.35.28-.36.3-.36.3-.38.32-.38.34-.4.34-.8.72-.42.38-.83.8-.43.4-.43.42-.44.42-.87.87-.45.44-.9.9-.44.46-.45.46-.88.94-.45.47-.44.47-.43.48-.44.48-.43.47-.42.48-.43.48-.4.47-.4.48-.8.94-.4.46-.76.92-1.1 1.36-.7.87-.68.82-.64.8-.62.75-.6.72-.58.7-.56.66-.54.64-.54.6-.52.58-.5.56-.5.55-1 1.03-.5.5-.5.48-.52.48-.52.46-1.08.92-.57.45-.58.45-.6.45-.63.46-1.33.94-.7.47-.73.5-.78.5-.8.52-.85.53-.9.56-.94.58-.98.6-1.03.63-1.08.65-3.57 2.13-.97.58-.95.57-.92.57-.9.57-.88.57-.87.58-.85.57-.83.57-.8.58-.8.58-.78.6-.78.6-.76.6-.75.6-.74.62-.73.63-.72.64-.7.64-1.42 1.34-.7.7-.7.7-.7.72-.7.74-1.4 1.53-.7.8-.7.82-.7.83-.7.86-.7.88-.72.9-.72.93-.73.96-.74.98-.76 1-.76 1.04-.77 1.07-.8 1.1-.8 1.13-.23.32-.24.32-.23.32-.24.32-.96 1.24-.72.9-.72.87-.24.28-.24.27-.23.27-.24.26-.23.26-.23.25-.44.48-.22.23-.22.22-.2.22-.2.2-.2.2-.2.2-.2.17-.2.17-.18.16-.18.15-.17.14-.17.13-.16.1-.15.1-.15.1-.14.08-.13.07-.12.06-.44.13-.64.13-.84.13-1.03.13-1.22.12-1.38.13-1.55.13-1.7.12-1.85.12-2 .12-2.12.12-2.24.1-2.35.1-2.45.1-2.55.1-2.63.1-2.7.1-2.78.1-2.84.1-8.8.24-3 .07-6.02.12-6.03.1-3 .04-5.9.06-2.9.02-2.83.01h-5.47l-2.63-.01-2.53-.02-2.44-.03-2.34-.04-2.22-.04-5.2-.15-3-.1-2.88-.1-2.76-.1-2.66-.1-2.55-.12-2.45-.12-2.35-.13-2.25-.14-2.15-.15-2.07-.15-1.98-.16-1.88-.18-1.8-.18-1.73-.2-1.64-.2-1.58-.22-1.5-.23-1.43-.24-1.36-.26-1.3-.27-1.24-.28-1.18-.3-1.12-.3-1.07-.33-1.02-.34-.97-.37-.93-.38-.88-.4-.85-.42-.8-.43-.77-.46-.75-.47-.7-.5-.7-.5-.66-.54-.65-.56-.63-.58-.62-.6-.6-.63-.14-.15-.46-.46-.16-.15-.16-.16-.17-.15-.17-.16-.18-.16-.17-.15-.18-.16-.2-.15-.18-.16-.2-.15-.2-.16-.2-.15-.2-.15-.2-.15-.2-.15-.2-.14-.2-.14-.2-.15-.2-.14-.2-.13-.2-.14-.4-.26-.2-.12-.2-.12-.2-.12-.57-.33-.38-.2-.36-.18-.18-.08-.17-.08-.18-.07-.16-.1-.32-.16-.85-.45-.18-.1-.17-.1-.17-.1-.18-.1-.34-.2-.18-.1-.5-.3-.17-.1-.32-.2-.17-.1-.16-.1-.15-.1-.16-.1-.15-.1-.14-.1-.15-.1-.14-.1-.4-.27-.12-.1-.12-.08-.22-.16-.2-.16-.08-.07-.1-.07-.2-.17-.22-.25-.26-.3-.3-.37-.32-.42-.34-.47-.38-.52-.4-.57-.42-.6-.43-.65-.45-.7-.47-.7-.48-.75-.5-.77-.5-.8-.5-.8-.5-.82-.5-.83-1.02-1.68-.5-.85-.5-.84-.5-.83-.48-.82-.47-.8-.45-.8-.43-.77-.42-.75-.4-.7-.38-.7-.66-1.26-.3-.57-.26-.52-.22-.47-.2-.42-.15-.37-.1-.3-.06-.24-.03-.18-.02-.26-.07-.34-.13-.42-.16-.5-.2-.56-.26-.63-.3-.7-.33-.76-.37-.8-.4-.87-.43-.92-.47-.96-.5-1-.52-1.05-.55-1.1-.57-1.12-.6-1.15-.62-1.17-1.27-2.42-.66-1.24-.68-1.25-.68-1.26-.7-1.26-1.4-2.54-1.42-2.52-1.42-2.48-.7-1.2-1.4-2.36-.7-1.14-.67-1.1-.66-1.08-.64-1.04-.63-1-.6-.95-.6-.9-.38-.56-.4-.57-.4-.58-.4-.6-.4-.6-.82-1.26-.4-.64-.4-.65-.84-1.32-.4-.67-1.26-2.04-.42-.7-.82-1.38-.42-.7-.4-.7-.4-.7-.4-.7-.4-.68-.4-.68-.4-.67-.38-.67-.38-.66-.37-.65-.36-.65-.36-.64-.68-1.24-.33-.6-.32-.6-.3-.58-.3-.57-.3-.54-.28-.54-.26-.5-.26-.5-.25-.5-.26-.5-.52-1.04-.54-1.04-.54-1.06-.28-.54-.28-.53-.28-.54-.28-.53-.28-.54-1.12-2.12-.28-.52-.27-.52-.55-1.02-.27-.5-.54-.98-.26-.5-.26-.47-.25-.47-.5-.9-.48-.86-.23-.4-.22-.4-.22-.4-.2-.37-.2-.36-.2-.35-.2-.33-.2-.3-.17-.3-.5-.86-.48-.86-.46-.86-.45-.87-.44-.86-.42-.87-.4-.88-.4-.87-.38-.9-.37-.88-.35-.9-.34-.9-.32-.9-.32-.9-.3-.93-.56-1.86-.26-.95-.25-.96-.23-.97-.23-.98-.2-1-.2-1-.36-2.05-.16-1.04-.15-1.05-.14-1.07-.13-1.1-.22-2.22-.1-1.14-.08-1.15-.07-1.17-.06-1.2-.05-1.2-.04-1.23-.04-2.5v-2.68l.01-.7.02-1.38.02-.68.02-.7.04-1.35.1-2 .04-.65.03-.64.08-1.28.05-.62.04-.62.05-.6.06-.6.1-1.18.06-.57.12-1.12.07-.54.07-.53.06-.52.07-.5.08-.5.07-.48.08-.48.07-.46.08-.44.08-.43.1-.42.08-.4.1-.4.08-.38.1-.35.1-.38.1-.4.1-.4.08-.42.08-.43.08-.45.08-.46.08-.48.08-.5.07-.5.07-.5.07-.53.07-.54.07-.55.06-.56.06-.57.12-1.18.06-.6.05-.6.15-1.9.04-.66.12-2.02.04-.7.06-1.4.02-.72.03-.72.02-.73.02-.74.01-.75.02-.75.01-.76v-.76-.77-2.14l.06-4 .08-2.57.02-.62.03-.6v-.6l.06-1.17.06-1.13.04-.55.03-.53.04-.52.04-.5.04-.5.04-.47.04-.46.05-.43.04-.42.05-.4.05-.38.05-.36.05-.34.05-.32.05-.3.06-.27.05-.26.06-.23.05-.2.06-.18.06-.15.08-.23.14-.42.12-.38.06-.18.05-.17.04-.16.04-.15.06-.28.02-.13.02-.24.01-.1v-.1l-.01-.1-.01-.08-.02-.1-.06-.14-.04-.06-.1-.12-.06-.05-.07-.04-.08-.04-.08-.03-.1-.04-.1-.02-.1-.03-.1-.02-.12-.01-.12-.02-.28-.02-.15-.01h-.5l-.32-.01h-.3l-.33-.03-.33-.05-.33-.06-.34-.07-.35-.08-.34-.1-.7-.22-.36-.13-.36-.14-.35-.15-.36-.15-.37-.17-.36-.18-.72-.38-.36-.2-.35-.2-.36-.22-.35-.23-.7-.48-.35-.25-.34-.26-.34-.27-.33-.27-.33-.28-.32-.28-.62-.58-.3-.3-.58-.62-.28-.3-.54-.64-.25-.32-.25-.33-.26-.4-.28-.47-.3-.53-.32-.6-.33-.67-.35-.74-.37-.8-.37-.86-.4-.9-.4-.96-.42-1-.42-1.05-.43-1.1-.43-1.14-.44-1.18-.45-1.2-.9-2.5-.45-1.3-.46-1.3-.46-1.33-.45-1.34-.45-1.36-.9-2.74-.44-1.37-.43-1.38-.43-1.37-.4-1.37-.4-1.35-.4-1.35-.4-1.33-.37-1.3-.36-1.3-.34-1.27-.32-1.23-.3-1.2-.3-1.18-.27-1.14-.25-1.1-.2-.93-.18-.95-.17-.95-.16-.96-.14-.97-.14-.98-.12-.98-.1-.98-.1-1-.16-1.97-.06-.98-.05-.98-.04-.98-.03-.97-.02-1.92.01-.94.02-.94.03-.92.05-.9.05-.9.07-.88.08-.86.1-.85.1-.82.1-.8.13-.78.13-.76.15-.73.16-.7.17-.68.2-.65.2-.62.2-.6.22-.56.23-.53.24-.5.25-.46.26-.42.1-.15.1-.18.1-.18.1-.2.1-.22.1-.23.1-.24.1-.25.2-.54.1-.3.1-.3.1-.3.2-.64.1-.34.1-.34.1-.35.1-.36.2-.74.1-.38.1-.4.1-.38.1-.4.1-.4.1-.4.1-.4.08-.4.1-.4.08-.42.08-.4.08-.42.08-.4.07-.42.08-.42.06-.4.07-.42.07-.4.06-.4.13-1.05.13-1 .14-.97.14-.92.14-.9.14-.85.16-.8.15-.78.17-.74.17-.7.18-.68.18-.64.2-.6.2-.58.2-.55.23-.52.23-.5.25-.46.26-.44.27-.4.28-.4.3-.36.3-.34.33-.32.34-.3.36-.28.37-.26.4-.24.4-.22.43-.2.45-.2.46-.18.5-.17.5-.15.53-.14.56-.12.57-.12.6-.1.62-.1.65-.1.3-.03.3-.02.3-.03.3-.03.3-.02.3-.03.3-.02.3-.02.3-.02.87-.06.3-.01.3-.02.28-.01h.3l.82-.03h.27l.26-.01h1l.23.01h.23l.44.02h.2.2l.2.01.18.02.34.04.16.02.14.02.14.03.12.02.12.03.44.12.2.05.2.04.18.04.17.03.15.02h.15.14.12l.12-.03.1-.05.1-.07.1-.1.07-.1.07-.13.06-.15.04-.18.04-.2.03-.23.02-.27.01-.3.01-.33-.01-.36-.01-.4-.02-.43-.04-.47-.03-.5-.05-.55-.06-.6-.06-.63-.07-.68-.08-.73-.08-.78-.1-.82-.1-.88-.1-.92-.1-.98-.12-1.03-.13-1.1-.08-.72-.14-1.4-.06-.68-.05-.7-.1-1.36-.04-.68-.06-1.38-.02-.7-.02-1.44v-1.5l.04-1.56.02-.82.04-.83.04-.87.05-.9.05-.93.07-.95.07-1 .08-1.03.1-1.07.1-1.1.1-1.15.1-1.2.12-1.24.13-1.3.14-1.35.15-1.4.16-1.45.17-1.5.17-1.56.2-1.63.2-1.7.2-1.76.2-1.82.43-3.7.2-1.74.4-3.27.18-1.54.18-1.47.18-1.4.17-1.35.17-1.3.17-1.24.16-1.2.16-1.14.16-1.1.16-1.05.16-1 .16-.96.16-.93.16-.9.16-.86.17-.82.16-.8.17-.77.17-.75.18-.73.18-.7.18-.7.2-.68.2-.66.2-.66.2-.65.2-.64.22-.64.23-.65.23-.64.5-1.3.27-.67.27-.68.28-.7.2-.48.2-.5.2-.5.2-.52.2-.53.2-.54.4-1.12.2-.58.4-1.18.2-.6.2-.62.38-1.24.2-.63.2-.64.2-.65.18-.64.18-.66.18-.65.17-.66.18-.66.17-.67.16-.66.17-.66.16-.67.16-.66.15-.67.15-.66.14-.66.14-.65.14-.66.13-.65.13-.64.12-.64.24-1.26.1-.62.1-.6.15-.92.16-.9.15-.85.15-.83.14-.8.15-.76.14-.74.15-.7.14-.7.15-.67.15-.65.15-.64.15-.6.16-.6.16-.6.17-.58.17-.57.2-.56.18-.56.4-1.1.44-1.1.23-.56.5-1.12.55-1.16.3-.6.3-.6.32-.62.34-.64.36-.66.37-.68.4-.7.4-.72.43-.75.45-.77.47-.8.5-.84.94-1.6 1-1.63 1.05-1.68 1.1-1.7 1.16-1.74 1.2-1.77 1.25-1.8 1.3-1.82 1.32-1.84 1.37-1.86 1.4-1.87 1.43-1.9 1.47-1.9 1.5-1.9 1.5-1.9 1.54-1.9 1.57-1.9 1.58-1.9 1.6-1.9 1.62-1.9 1.62-1.88 1.63-1.87 1.64-1.84 1.65-1.83 1.65-1.8L165 74.6l1.64-1.75 1.65-1.72 1.63-1.68 1.63-1.66 1.62-1.6 1.6-1.57 1.6-1.53 1.57-1.48 1.55-1.43 1.53-1.37 1.5-1.33 1.48-1.26 1.44-1.2 1.42-1.15 1.06-.84 1.06-.83 1.06-.8 1.06-.8 1.06-.76 1.07-.76 1.1-.73 1.1-.73 1.12-.7 1.14-.7 1.17-.7 1.2-.7 1.24-.7 1.27-.68 1.32-.7 1.36-.68 1.4-.68 1.46-.7 1.52-.7 1.58-.7 1.64-.7 1.7-.72 1.8-.73 1.85-.75 1.94-.75 2-.78 2.1-.8 2.2-.82 2.3-.83 2.38-.86 2.48-.88 2.58-.9 2.7-.94 2.8-.97 9.1-3.1 6.7-2.24 3.55-1.18 6-1.98 5.24-1.72 1.6-.5 2.98-.96 1.4-.43 1.33-.42 1.27-.4 1.22-.37 1.16-.34 1.12-.33 2.12-.6 1-.26 1.9-.5.9-.2.9-.2.86-.18.85-.18.84-.16.82-.15.82-.14 1.64-.24.82-.1.83-.1.84-.1.85-.1.87-.08.9-.08.9-.08.95-.07.97-.07 1-.07 1.05-.07 1.77-.1 3.55-.18 1.77-.07 1.78-.07 1.77-.06 3.53-.08 1.75-.03 1.75-.02h5.18zm-205.8 287.6l-.12.98-.12 1-.15 1.04-.15 1.08-.16 1.1-.17 1.14-.2 1.16-.2 1.18-.2 1.2-.2 1.22-.2 1.24-.46 2.53-.48 2.58-.26 1.3-.25 1.3-.27 1.3-.26 1.3-.27 1.32-.84 3.93-.3 1.3-.58 2.56-.3 1.26-.3 1.25-.3 1.23-.3 1.2-.3 1.2-.3 1.16-.3 1.14-.3 1.12-.3 1.08-.3 1.05-.3 1.02-.28 1-.28.95-.2.68-.2.67-.2.64-.18.63-.17.6-.16.6-.16.58-.28 1.1-.13.53-.12.52-.1.5-.1.5-.1.5-.1.48-.08.5-.08.47-.07.48-.12.94-.05.47-.04.48-.04.47-.03.5-.04.98-.01.5v1.03l.02 1.08.04 1.14.03.6.03.6.04.63.04.65.05.67.05.7.06.7.04.5.05.5.06.52.05.53.14 1.08.07.56.08.56.08.57.08.58.1.58.1.6.2 1.2.22 1.2.1.6.12.6.12.62.12.6.13.62.26 1.22.13.62.14.6.14.6.14.6.15.6.14.6.3 1.18.3 1.16.16.57.15.56.16.55.16.54.15.54.32 1.04.16.48.17.5.16.5.16.5.17.5.17.52.34 1.06.5 1.62.17.55.16.55.17.54.34 1.1.16.55.17.54.16.55.32 1.08.16.53.15.53.3 1.04.15.5.28 1 .13.48.14.48.12.47.13.45.12.45.1.43.1.42.1.4.1.4.1.38.1.36.08.35.38 1.4.4 1.4.44 1.4.47 1.4.5 1.4.52 1.4.55 1.4.58 1.4.6 1.4.63 1.4.67 1.4.7 1.4.72 1.4.75 1.4.78 1.4.8 1.4.84 1.4.87 1.4.9 1.4.93 1.4.96 1.4 1 1.4 1.02 1.4 1.05 1.42 1.08 1.4 1.12 1.42 1.14 1.42 1.18 1.42 1.2 1.43 1.24 1.43 1.27 1.44 1.3 1.44 1.34 1.45 1.37 1.45 1.4 1.45 1.44 1.47 1.47 1.46 1.5 1.47 1.54 1.48 1.57 1.5.9.85.87.82.85.8 1.6 1.5.78.7.76.68.73.66.73.63.7.62.7.6.7.58.7.57.7.55.7.54.7.53.7.52.7.5 1.42 1.02.73.5.75.5.76.5.8.5.8.5.83.5.86.52.9.53.9.53.95.55 1 .56 1.02.57 1.07.6 1.1.6 1.15.62 1.2.65 1.25.67 1.3.7 1.35.72 1.4.74.98.52 1 .54 1 .55 1.03.57 1.04.6 1.05.6 1.06.6 1.07.62 1.07.63 1.07.64 1.08.64 1.07.64 1.07.66 1.07.65 1.06.66 1.05.65 1.03.65 1.03.66 1 .64 1 .65.97.63.96.63.93.62.9.6.88.6 2.46 1.7.75.54.7.52.68.5.63.47.6.46.55.43.5.4.46.38.4.36.3.3 5.54 3.2.2.1.4.16.42.17.42.16.88.34.46.17.46.16.47.17.96.34.5.17 1 .34.5.17.52.17.5.16.53.17.52.16.53.16 1.22.4 1.2.37 1.2.36 1.2.34 1.2.32 1.2.3 1.23.3 1.24.27 1.27.26 1.3.24 1.33.22 1.36.2 1.4.2 1.45.18 1.5.17 1.56.15 1.62.14 1.68.12 1.76.1 1.82.1 1.9.08 2 .07 2.08.06 4.45.08 2.38.02h2.5 2.6 2.72l2.84-.02 6.08-.08 3.24-.05 3.38-.06 3.53-.08 3.7-.08 3.83-.1 4-.1 4.17-.1 4.34-.12 2.9-.1 2.8-.1 2.67-.08 2.57-.08 4.8-.16 4.4-.16 2.05-.08 1.97-.08 1.87-.07 1.8-.08 1.7-.08 1.63-.08.53-.03 12.42-.87.8-.1.96-.1.92-.12.9-.1.86-.12.84-.13.8-.13.8-.13.78-.14.78-.15.76-.15 1.52-.32 1.52-.36.77-.18.48-.12.48-.13.48-.12.47-.13.48-.13.46-.14.47-.13.92-.28.9-.28.88-.28.43-.15.84-.28.4-.15.4-.14.4-.15.38-.14.37-.14.36-.14.35-.14.66-.28.3-.13.3-.14.3-.13.27-.13.26-.12.24-.13.23-.12.2-.12.2-.1.18-.1.16-.1.15-.1.12-.1.1-.1.1-.1.14-.16.15-.18.18-.22.2-.24.2-.27.22-.3.25-.33.26-.36.28-.4.3-.42.64-.93.35-.52.76-1.1 2.2-3.3.5-.76 1.04-1.6.55-.84.56-.87.6-.9.6-.93.62-.97.64-1 .65-1.03.68-1.05 1.4-2.2.73-1.14.75-1.18.76-1.2.8-1.24.8-1.27.82-1.3 1-1.58.16-.25.16-.26.34-.54.17-.28.18-.28.36-.58.38-.6.38-.62.4-.62 1-1.6.2-.33.2-.32.8-1.28.4-.62.2-.3.2-.3.2-.3.2-.3.18-.3.2-.3.36-.56.17-.28.17-.26.17-.27.16-.25.58-.93.64-1.05.7-1.16.76-1.27.8-1.36.85-1.46.9-1.54 1.9-3.3 1-1.75 1.03-1.8 1.04-1.86 1.07-1.9 1.08-1.94 1.1-1.97 2.2-4 1.1-2.02 1.1-2 3.27-6 4.1-7.6.95-1.78.9-1.72 1.7-3.24.78-1.5 1.4-2.74.6-1.2.55-1.1.5-1 .42-.87.34-.74.26-.6.18-.46.2-.56.2-.6.2-.62.2-.64.2-.66.2-.7.2-.7.18-.73.18-.75.18-.77.18-.8.18-.8.17-.82.17-.83.16-.85.16-.86.16-.88.3-1.78.15-.9.42-2.77.13-.94.36-2.83.22-1.9.2-1.9.1-.95.16-1.9.14-1.87.12-1.85.05-.9.04-.9.04-.73.06-.8.07-.85.1-.9.1-.94.12-1 .14-1.03.14-1.07.16-1.1.17-1.13.2-1.17.2-1.2.2-1.2.22-1.23.22-1.24.23-1.26.24-1.27.24-1.28.25-1.28.52-2.56.54-2.54.27-1.25.28-1.24.28-1.23.27-1.2.28-1.17.28-1.15.28-1.12.55-2.14.27-1 .53-1.9.26-.87.26-.83.24-.77.24-.7.24-.65.16-.47.15-.54.14-.6.13-.65.1-.7.1-.75.1-.8.08-.83.07-.88.06-.9.05-.94.04-.97.04-2 .01-1.03v-1.04l-.04-2.1-.03-1.06-.04-1.05-.05-1.04-.06-1.04-.06-1.02-.08-1-.08-.98-.1-.96-.1-.93-.1-.9-.12-.86-.12-.83-.13-.78-.14-.74-.14-.7-.15-.64-.16-.57-.16-.52-.17-.46-.18-.38-.18-.3-.18-.24-.1-.08-.14-.05-.18-.05-.2-.03-.24-.02h-.26-.3l-.32.01-.33.03-.36.04-.38.05-.4.06-.4.07-.42.08-.43.08-.44.1-.45.1-.9.22-.92.24-1.35.4-.86.28-.42.14-.4.14-.4.15-.37.14-.35.15-.33.14-.3.15-.28.14-.26.14-.23.13-.2.14-.17.13-.13.13-.1.12-.05.1-.05.1-.05.12-.05.14-.04.15-.05.17-.05.18-.04.2-.04.2-.05.22-.08.48-.08.54-.04.28-.08.6-.03.32-.04.32-.06.68-.06.72-.03.37-.02.37-.03.38-.02.4-.03.4-.02.4-.01.4-.02.4-.02.42-.02.84-.03 1.3v.44l-.01.44v1.86l-.02 1.33-.02.64-.02.62-.03.6-.04.6-.04.58-.1 1.14-.07.57-.08.56-.08.57-.1.57-.1.58-.12.58-.13.6-.14.6-.16.62-.17.64-.18.66-.2.67-.2.7-.23.73-.25.75-.26.8-.28.82-.3.85-.32.9-.34.93-.35.97-.38 1.02-.82 2.17-.44 1.16-.96 2.5-.5 1.33-.54 1.4-1.3 3.34-.33.82-.32.8-.33.8-.32.8-.3.77-.32.77-.3.75-.3.74-.3.72-.3.7-.3.7-.3.67-.3.66-.27.64-.27.62-.27.6-.26.6-.25.56-.25.53-.23.52-.23.5-.22.47-.2.45-.2.42-.2.4-.18.37-.17.34-.16.3-.16.28-.14.25-.12.22-.12.2-.1.16-.1.12-.08.1-.07.06-.57.4-1.1.72-.52.34-.5.3-.5.3-.5.28-.48.27-.5.25-.48.23-.5.2-.5.2-.5.18-.52.17-.54.16-.56.15-.6.13-.6.1-.64.1-.67.1-.7.08-.74.07-.8.06-.83.05-.88.04-.93.03-1 .02-1.04.01h-1.1l-2.4-.02-1.3-.02-1.37-.03-1.44-.04-1.53-.04-1.6-.05-1.7-.05-1.78-.06-1.86-.06-1.96-.07-1.08-.04-1.1-.05-1.13-.04-1.15-.05-1.16-.06-1.2-.05-3.64-.18-1.25-.06-6.32-.35-1.27-.08-1.28-.07-7.6-.48-1.24-.08-1.23-.1-1.2-.08-1.2-.08-1.2-.1-1.16-.08-1.15-.1-1.12-.08-1.1-.1-1.07-.08-1.06-.1-2.02-.16-.97-.1-.93-.08-.9-.08-.87-.08-20.64-2-10.25-6.92-.98-.67-.94-.66-.9-.66-.88-.66-.84-.66-.8-.66-.8-.66-.76-.67-.73-.67-.7-.7-.67-.7-.65-.7-.63-.7-.6-.72-.6-.74-.55-.76-.54-.77-.52-.8-.5-.8-.48-.83-.46-.86-.45-.88-.42-.9-.42-.93-.4-.96-.4-1-.36-1.03-.36-1.05-.35-1.1-.33-1.13-.33-1.16-.3-1.2-.3-1.25-.3-1.28-.3-1.33-.3-1.37-.28-1.42-.28-1.46-.27-1.5-.27-1.56-.1-.62-.22-1.24-.1-.63-.24-1.28-.13-.64-.13-.65-.13-.64-.13-.65-.28-1.3-.14-.64-.14-.65-.3-1.28-.3-1.26-.3-1.24-.15-.6-.15-.6-.16-.6-.3-1.16-.16-.56-.15-.56-.15-.54-.16-.53-.15-.5-.15-.5-.15-.5-.14-.47-.15-.45-.14-.44-.14-.42-.14-.4-.14-.38-.13-.36-.13-.34-3.2-8-7.72-1.07-.55-.07-.52-.08-.5-.06-.47-.07-.45-.05-.43-.05-.4-.05-.4-.03-.37-.03-.36-.03-.67-.02h-.3l-.3.01-.3.02-.28.03-.28.04-.27.05-.26.06-.26.07-.25.08-.26.1-.25.1-.25.12-.26.13-.25.14-.27.15-.26.17-.27.18-.28.2-.3.2-.3.22-.3.24-.32.25-.34.27-.35.28-.36.3-.38.32-.4.33-.42.35-.32.27-.3.27-.3.26-.3.26-.28.25-.27.26-.27.25-.25.24-.5.5-.23.25-.22.24-.22.23-.2.24-.2.24-.2.23-.2.24-.18.23-.17.23-.17.24-.16.23-.15.23-.28.46-.14.24-.24.46-.12.24-.1.23-.2.48-.18.48-.08.25-.08.24-.07.25-.06.25-.07.25-.1.52-.1.5-.13.57-.15.6-.18.66-.2.7-.22.75-.25.8-.26.82-.28.85-.3.88-.32.9-.32.93-.34.95-.36.96-.36.98-.37 1-.38 1-.4 1-.4 1-.4 1-.4 1-.4.98-.4.97-.4.95-.4.94-.4.9-.4.9-.38.86-.37.83-.37.8-.36.76-.34.7-.34.67-.3.63-.3.57-.3.52-.27.46-.25.4-.23.34-.2.27-.1.1-.1.12-.12.12-.13.14-.14.14-.15.16-.17.16-.17.17-.38.36-.2.2-.44.4-.46.44-.25.22-.25.24-.26.23-.26.25-.27.24-.28.26-.28.25-.3.26-.3.27-.3.26-.3.27-.3.28-.3.27-1.6 1.4-.33.28-.32.3-.66.56-.33.3-.66.56-7.86 6.66-34.96-1.05-1.86-.07-1.8-.06-1.72-.08-1.66-.07-1.6-.08-1.54-.1-1.5-.1-1.45-.1-1.4-.1-1.37-.12-1.34-.12-1.3-.12-1.27-.14-1.25-.15-1.23-.16-1.22-.17-1.2-.18-1.2-.2-2.38-.42-2.4-.48-1.2-.27-1.23-.27-1.25-.3-2.56-.63-1.32-.35-1.36-.36-1.4-.38-1.44-.4-1.48-.43-1.54-.44-1.6-.46-1.64-.5-1.7-.5-1.56-.47-1.5-.46-1.43-.44-1.36-.43-1.3-.43-1.24-.42-1.17-.4-1.12-.4-1.06-.4-1-.4-.95-.4-.9-.42-.86-.42-.8-.43-.76-.44-.73-.45-.68-.46-.64-.48-.6-.5-.57-.5-.54-.53-.5-.56-.48-.58-.45-.6-.43-.63-.4-.66-.38-.7-.36-.73-.34-.76-.33-.8-.32-.84-.3-.87-.3-.92-.3-.96-.28-1-.27-1.06-.27-1.1-.27-1.15-.28-1.2-.27-1.26-.13-.52-.12-.53-.36-1.65-.36-1.7-.24-1.16-.12-.6-.1-.6-.12-.6-.1-.6-.12-.6-.22-1.18-.1-.58-.1-.6-.1-.58-.1-.58-.2-1.14-.1-.56-.18-1.1-.1-.54-.1-.53-.08-.52-.16-1-.07-.5-.07-.48-.07-.46-.12-.88-.06-.42-.05-.4-.04-.38-.05-.37-.93-8.66-.93 8.4-.1.94zm278.58 220.7l.1-.15-.2.16.1-.01zm48-75.97l-.18.28-.2.3-.2.3-.2.32-.2.34-.22.35-.23.36-.23.38-.24.4-.25.4-.5.84-.52.88-.27.45-.27.47-.27.46-.28.48-.28.5-.2.33 6.84-10.77-2.1 2.95zm54-118.54l-.42.02-.4.02-.4.03-.42.04-.4.04-.4.06-.42.06-.4.06-.4.07-.4.08-.4.1-.18.02-.1.02-.12.01-.12.02h-.13l-.14.02-.15.02-.15.03-.16.02-.17.02-.18.03-.18.02-.38.06-.2.03-.2.02-.2.04-.2.03-.22.03-.46.06-.23.04-.23.03-.48.08-.25.03-.24.04-.25.04-.25.03-.5.08-.26.04-.5.08-.26.04-1 .16-.26.03-.27.03-1.3.2-.78.15-.25.05-.26.06-.25.05-.25.06-.24.06-.25.06-.48.12-.23.06-.23.07-.22.06-.44.14-.2.06-.2.07-.2.07-.38.14-.18.07-.34.14-.16.08-.16.07-.28.14-.13.07-.12.07-.22.14-.1.07-.2.2-.22.26-.23.32-.24.38-.25.45-.25.5-.27.56-.27.6-.28.65-.28.7-.3.75-.3.78-.3.8-.3.85-.3.87-.3.9-.3.92-.3.94-.28.96-.3.98-.27.98-.54 1.98-.26 1-.48 1.98-.23.97-.22.97-.2.95-.2.93-.18.9-.16.9-.15.85-.13.83-.1.8-.1.76-.07.7-.06.67-.03.63-.01.58v.2l-.01.23v.24l-.01.25-.02.53-.02.57-.02.3-.02.3-.06.97-.03.34-.02.34-.03.35-.1 1.08-.04.37-.03.37-.04.37-.16 1.52-.05.38-.04.4-.3 2.28-.06.37-.05.37-.06.37-.06.36-.05.36-.06.35-.05.35-.06.37-.05.38-.12.78-.06.4-.07.42-.06.42-.07.43-.14.88-.14.9-.07.46-.07.47-.08.46-.07.47-.08.47-.07.48-.08.47-.07.47-.07.48-.08.47-.07.48-.08.47-.07.46-.07.47-.14.92-.14.9-.07.44-.06.44-.07.43-.06.42-.12.82-.05.4-.06.4-.05.37-.06.4-.07.4-.08.43-.08.44-.08.46-.1.48-.1.5-.1.5-.22 1.06-.12.55-.12.56-.13.57-.26 1.18-.14.6-.14.6-.15.6-.14.63-.15.63-.16.63-.15.64-.16.64-.16.65-.17.64-.16.65-.17.65-.16.65-.5 1.95-.18.64-.34 1.28-.17.63-.17.62-.18.62-.17.6-.34 1.2-.26.9-.25.87-.24.84-.23.8-.22.77-.2.74-.2.7-.35 1.32-.16.62-.15.6-.13.57-.13.54-.12.52-.1.5-.1.47-.08.45-.08.43-.07.4-.05.4-.05.37-.04.36-.03.35-.02.33-.01.32v.3l.02.6.02.27.06.54.05.25.05.26.05.24.07.25.07.24.08.25.08.24.1.25.1.25.3.7.3.7.34.66.34.63.35.6.37.58.38.55.4.52.4.5.42.46.43.44.45.4.45.38.47.35.5.33.5.3.5.27.52.24.53.22.55.2.55.16.57.13.6.1.6.08.6.05.63.02h.63l.65-.03.66-.06.67-.08.7-.12.7-.14.7-.16.72-.2.74-.22.75-.24.77-.28.77-.3.8-.33.8-.36.57-.27.56-.28.56-.3.54-.3.54-.32.52-.33.52-.34.5-.36.5-.37.5-.4.5-.4.5-.42.48-.44.48-.45.48-.48.47-.5.47-.5.47-.54.47-.55.47-.58.47-.6.46-.62.47-.65.47-.68.47-.7.48-.72.47-.76.48-.78.5-.8.48-.84.5-.87.5-.9.5-.93.52-.96.52-1 .52-1.02.54-1.07.54-1.1.56-1.13.56-1.17.15-.3.15-.3.16-.32.17-.32.17-.33.18-.34.2-.34.2-.34.4-.7.22-.35.2-.36.22-.36.7-1.08.24-.37.24-.36.24-.37 1-1.44.25-.35.26-.35.25-.35.26-.35.25-.34.26-.33.25-.33.26-.33.25-.32.25-.3.5-.6.24-.3.48-.56.24-.26.23-.26.67-.73.65-.74.63-.73.6-.74.57-.73.55-.74.53-.75.5-.76.48-.76.46-.78.43-.8.42-.8.4-.82.37-.84.35-.86.33-.88.32-.9.3-.93.27-.96.26-1 .24-1 .22-1.05.2-1.1.2-1.12.17-1.15.16-1.2.14-1.24.13-1.28.1-1.32.1-1.38.16-2.9.06-1.52.04-1.58.04-1.63.04-3.44v-3.67l-.02-1.94-.02-1.73-.04-3.22-.02-1.5-.03-1.42-.03-1.33-.03-1.27-.04-1.2-.05-1.13-.05-1.06-.06-1-.07-.95-.07-.9-.1-.83-.1-.8-.1-.73-.12-.7-.14-.65-.15-.6-.16-.57-.18-.52-.2-.5-.2-.46-.23-.44-.26-.4-.27-.4-.3-.36-.3-.35-.34-.33-.36-.32-.38-.3-.4-.3-.44-.3-.46-.3-.48-.3-.5-.3-.55-.3-.57-.3-.6-.3-.63-.32-.36-.17-.35-.16-.72-.3-.74-.28-.37-.13-.76-.24-.76-.22-.4-.1-.78-.18-.4-.08-.4-.07-.4-.07-.8-.12-.4-.04-.4-.05-.82-.06-.82-.04-.4-.01h-.4l-.82.02zM93.44 271.22l-.66.02-.63.04-.6.05-.58.06-.56.08-.53.1-.5.1-.5.12-.46.14-.45.15-.42.17-.4.2-.38.2-.36.23-.35.25-.33.27-.3.3-.3.32-.27.34-.27.36-.24.4-.24.42-.2.44-.2.47-.2.5-.2.52-.17.56-.16.58-.15.62-.14.64-.14.68-.12.7-.12.74-.1.78-.1.8-.1.85-.1.88-.1.92-.05.48-.05.47-.06.47-.12.92-.06.45-.07.45-.07.44-.14.86-.08.43-.08.42-.16.82-.1.4-.1.4-.18.78-.1.38-.1.38-.1.37-.1.37-.1.36-.1.35-.12.35-.1.35-.12.34-.1.33-.12.32-.13.33-.12.3-.26.62-.14.3-.13.3-.28.56-.15.28-.14.27-.15.26-.2.32-.2.33-.18.3-.17.3-.16.3-.16.3-.15.3-.15.3-.13.3-.26.6-.1.3-.1.3-.1.3-.1.3-.1.3-.1.32-.08.32-.07.32-.14.68-.06.35-.05.35-.05.37-.05.38-.04.38-.03.4-.04.4-.02.43-.03.43-.02.46-.01.46-.02.48v.5l-.01.5v1.65l.02 1.2.01.82.02.8.06 1.6.1 1.6.14 1.6.08.8.1.8.1.8.1.82.12.83.28 1.7.16.86.17.88.18.9.2.92.2.93.22.95.23.98.25 1 .55 2.08.3 1.07.63 2.25.34 1.17.36 1.2.77 2.5.4 1.3.42 1.35.45 1.4.46 1.43.48 1.48.5 1.52.52 1.57.98 2.92.43 1.26.43 1.22.42 1.18.42 1.13.42 1.1.42 1.05.4 1 .4.98.4.93.4.9.4.86.4.82.4.78.4.75.4.7.4.68.4.64.4.6.42.57.4.54.43.5.42.48.43.44.43.4.44.38.44.36.45.32.46.3.46.27.46.24.48.2.48.18.5.16.5.13.5.1.52.08.52.06.54.03.54.01h.42l.63-.03.2-.02.2-.02.4-.04.6-.1.2-.03.2-.03.18-.04.2-.04.36-.08.18-.05.17-.04.17-.05.32-.1.15-.06.15-.05.15-.06.14-.06.13-.05.13-.06.12-.07.12-.06.1-.06.1-.07.1-.06.1-.07.1-.06.2-.2.05-.07.04-.07.04-.1.04-.1.03-.14.04-.17.04-.18.03-.2.04-.23.03-.24.04-.27.03-.28.03-.3.03-.3.03-.34.02-.35.03-.36.03-.38.04-.8.02-.42.04-.88.01-.46.02-.47.02-.98.03-1.53v-2.16-1.1-.57l-.02-.57-.01-.57-.02-.57-.01-.58-.02-.85v-.82l-.01-.8-.03-2.22v-1.37l.04-2.48v-.57l.03-.56.02-.54.03-.52.04-.5.08-.97.05-.47.05-.46.12-.88.14-.84.07-.4.08-.4.1-.4.1-.4.1-.4.1-.38.22-.76.12-.38.13-.37.13-.38.28-.76.15-.4.16-.38.28-.74.27-.77.28-.8.27-.8.26-.84.27-.86.26-.88.26-.9.25-.92.25-.94.25-.96.25-.98.24-1 .23-1.02.24-1.03.23-1.05.22-1.06.22-1.08.22-1.1.2-1.1.2-1.12.2-1.14.2-1.15.2-1.16.2-1.17.18-1.18.18-1.2.17-1.2.17-1.2.17-1.22.15-1.23.3-2.48.14-1.25.26-2.52.24-2.54.1-1.27.1-1.28 1.07-15.3-4.8-5.2-.2-.22-.2-.2-.22-.2-.23-.2-.23-.22-.23-.2-.23-.22-.24-.2-.23-.2-.24-.22-.25-.2-.24-.2-.25-.2-.24-.2-.25-.2-.5-.4-.24-.2-.25-.2-.25-.2-.25-.18-.24-.2-.25-.18-.24-.17-.24-.18-.48-.32-.23-.16-.46-.3-.23-.14-.22-.13-.2-.13-.22-.12-.2-.1-.4-.2-.38-.18-.18-.07-.38-.16-.2-.07-.2-.08-.23-.08-.23-.07-.24-.07-.5-.14-.26-.07-.27-.07-.28-.06-.28-.07-.28-.06-.3-.06-.3-.06-.3-.05-.3-.06-.93-.15-.32-.05-1.6-.2-.64-.06-.33-.03-.3-.03-.95-.06-.3-.02-.92-.03h-1.3l-.7.02zm260.7 2.84l-1.54.05-1.47.07-1.4.08-1.37.1-1.32.13-1.28.14-1.25.16-1.22.18-1.2.2-1.2.2-1.18.24-1.17.26-1.17.27-1.18.3-1.2.32-1.2.33-1.23.36-2.56.77-1.33.42-.62.2-.6.2-.56.2-.54.2-.52.2-.5.22-.47.23-.44.23-.43.24-.4.26-.38.26-.36.28-.34.3-.32.3-.3.32-.3.33-.26.36-.25.38-.23.4-.22.42-.2.43-.18.47-.17.48-.16.5-.14.54-.13.57-.1.6-.1.63-.1.65-.08.7-.08.72-.06.75-.05.8-.04.83-.04.86-.03.9-.02.95-.02 2v1.8l.02 1.44.1 2.16.04.73.05.72.06.73.07.73.07.74.08.74.1.75.1.76.22 1.54.13.8.13.8.14.8.15.83.16.83.17.86.18.87.2.88.2.9.2.92.22.95.24.96.24 1 .25 1 .26 1.03.28 1.06.6 2.2.3 1.13.32 1.16.33 1.2.7 2.47.38 1.3.22.77.24.76.25.76.26.74.56 1.46.3.7.3.7.32.7.33.67.35.67.35.66.37.64.37.63.4.62.4.6.4.6.42.6.43.57.43.56.45.54.46.53.46.52.48.5.48.5.5.48.5.47.5.45.52.44.53.42.53.4.55.4.55.38.56.37.57.35.58.34.58.32.6.3.6.3.6.28.7.3.74.28.77.27.8.26.84.26.9.24.92.25.96.23 1 .23 1.04.22 1.08.2 1.1.2 1.16.2 1.2.2 1.24.18 1.27.18 1.32.16 1.37.16 1.4.16 1.44.14 1.5.14 1.53.13 1.57.13 1.62.1 1.65.1 1.7.1 1.74.1 1.8.1 3.72.16 3.9.12 2.02.06 4.17.08 4.35.06 6.9.03h30.62l3.94-4.23.47-.52.46-.54.44-.56.44-.58.44-.6.42-.62.4-.64.4-.67.4-.68.4-.7.38-.73.38-.75.37-.78.36-.8.35-.82.35-.85.34-.87.33-.9.33-.92.32-.95.3-.97.3-1 .3-1.02.3-1.04.28-1.08.28-1.1.28-1.13.27-1.15.26-1.18.26-1.2.25-1.23.25-1.26.24-1.3.23-1.32.23-1.35.23-1.37.22-1.4.22-1.43.2-1.46.22-1.65.2-1.63.2-1.58.18-1.56.16-1.52.16-1.5.14-1.46.12-1.43.1-1.4.1-1.36.08-1.32.07-1.3.05-1.26.05-1.22.04-2.33-.02-2.2-.03-1.04-.04-1-.06-.97-.07-.93-.08-.9-.1-.86-.12-.82-.12-.78-.14-.75-.16-.7-.17-.67-.18-.63-.2-.6-.2-.55-.22-.52-.24-.47-.25-.43-.27-.4-.28-.35-.3-.3-.3-.28-.33-.23-.16-.1-.2-.1-.25-.1-.3-.1-.34-.1-.38-.1-.44-.1-.47-.1-.52-.1-.57-.1-.6-.1-.66-.1-.7-.1-.74-.1-.8-.1-.84-.1-.88-.1-.92-.1-.97-.1-1.02-.1-1.05-.1-1.1-.12-1.15-.1-1.2-.12-1.23-.12-1.3-.12-1.32-.12-1.37-.12-1.42-.12-1.46-.13-1.5-.12-1.55-.13-1.6-.13-1.64-.13-1.68-.13-1.73-.14-1.77-.13-1.8-.14-1.87-.13-5.83-.43-10.76-.75-6.38-.43-2.98-.2-5.53-.33-2.57-.14-2.45-.12-2.33-.1-2.22-.1-2.1-.07-2-.06-1.92-.04-1.83-.02h-1.75l-1.67.01-1.6.03zM142 249.9l-.18.03-.18.04-.18.05-.18.07-.17.08-.17.1-.17.1-.17.12-.16.13-.16.15-.17.16-.16.17-.16.2-.16.2-.15.22-.16.24-.15.26-.16.27-.15.3-.16.3-.15.32-.16.34-.15.36-.15.38-.16.4-.15.4-.16.44-.3.93-.16.5-.16.52-.16.53-.16.56-.16.58-.16.6-.17.62-.16.65-.17.66-.15.57-.14.54-.13.53-.13.5-.1.5-.12.5-.1.48-.1.47-.18.92-.07.46-.14.9-.06.44-.05.45-.04.45-.04.46-.06.92-.01.48-.02.48v1l.02 1.05.02.54.03.56.03.58.04.6.05.62.05.65.06.66.06.7.07.72.08.74.08.78.1.8.1.83.1.87.1.9.17 1.6.18 1.56.17 1.54.18 1.52.2 1.5.18 1.46.2 1.44.2 1.4.2 1.4.2 1.36.2 1.33.2 1.3.2 1.28.2 1.24.2 1.22.2 1.2.2 1.16.2 1.13.2 1.1.2 1.07.2 1.03.2 1 .2.97.2.94.2.9.2.87.2.83.2.8.2.77.2.73.2.7.2.66.2.62.2.58.2.55.2.5.2.47.2.42.2.4.2.35.16.27.32.5.34.46.36.44.2.2.2.2.22.2.23.2.24.2.27.18.28.2.3.18.32.18.72.35.4.18.42.18.45.18.48.18.52.2.54.2.58.2.62.2.66.2.7.2.73.2.78.22.82.23.87.24.9.24.96.26 1 .26 1.06.28 1.1.28 1.17.3 1.22.3 1.28.32 3.06.75 3 .7 2.93.67 2.88.64 2.82.6 2.75.56 2.7.5 2.63.48 2.58.44 2.52.4 2.47.36 2.4.32 2.35.28 2.3.24 2.24.2 2.2.16 2.14.13 2.1.1 2.03.04 2 .01 1.93-.03 1.9-.06 1.84-.1 1.8-.15 1.74-.18 1.7-.23 1.65-.26 1.6-.3 1.56-.34 1.52-.38 1.48-.42 1.43-.46 1.4-.5 1.35-.53 1.32-.58 1.27-.6 1.24-.66 1.2-.7 1.16-.73 1.13-.77.4-.28.38-.3.36-.27.36-.28.34-.27.33-.28.32-.27.3-.28.3-.27.3-.3.28-.28.56-.6.27-.3.52-.64.26-.34.25-.36.26-.36.5-.78.26-.42.25-.43.25-.45.26-.48.26-.5.27-.52.55-1.1.28-.6.3-.62.3-.65.3-.67.3-.7.33-.73.33-.77.34-.8.36-.83.37-.88.38-.9.6-1.45.58-1.4 1.08-2.63.5-1.24.48-1.18.88-2.23.4-1.05.38-1 .37-.97.34-.94.33-.9.6-1.7.26-.8.25-.8.45-1.5.2-.73.18-.72.17-.7.16-.7.14-.68.13-.68.12-.67.1-.67.1-.68.1-.67.07-.68.07-.7.06-.7.05-.7.04-.73.03-.74.06-1.55.02-.8.04-3.47v-1.6l-.02-.74-.01-.7-.03-.67-.04-.64-.05-.6-.06-.58-.08-.55-.1-.52-.1-.5-.12-.47-.15-.45-.16-.43-.2-.4-.2-.4-.23-.38-.26-.36-.28-.35-.3-.34-.34-.33-.36-.32-.4-.32-.43-.3-.45-.3-.5-.3-.53-.3-.56-.3-.6-.3-.65-.3-.68-.33-.72-.33-.76-.34-.8-.35-.86-.36-.9-.38-.95-.4-1-.4-.94-.37-.9-.36-.9-.34-.9-.33-.9-.32-.9-.3-.9-.3-.92-.28-.94-.28-.95-.26-1-.25-1-.25-1.04-.23-1.08-.23-1.12-.22-1.17-.22-1.22-.2-1.27-.2-1.34-.2-1.4-.2-1.46-.2-1.54-.2-3.3-.37-1.77-.18-1.87-.18-1.96-.18-2.05-.18-2.16-.18-2.26-.18-4.86-.37-2.6-.2-5.58-.4-6.12-.4-15.12-.98-1.6-.1-3.14-.2-1.54-.1-1.5-.1-1.5-.1-1.47-.1-1.44-.1-1.42-.1-2.74-.18-1.32-.08-1.3-.1-1.26-.08-1.22-.08-1.18-.07-1.15-.08-1.1-.07-1.06-.07-1.02-.06-.98-.06-.94-.06-.88-.06-.84-.05-.8-.05-.74-.05-.7-.04-.63-.04-.58-.03-.53-.03-.46-.03-.4-.03-.35-.01-.28-.02h-.23-.15-.1-.2-.18zm94.5-147.64l-.3.04-.3.05-.32.06-.33.06-.34.08-.35.08-.36.08-.36.1-.76.2-.38.12-.4.1-.4.13-.4.12-.4.14-.4.13-.4.14-1.2.45-.4.16-1.17.48-.38.17-.74.34-.36.17-.35.17-.34.17-.33.18-.32.17-.3.17-.3.18-.28.17-.27.17-.25.18-.24.17-.15.1-.18.1-.2.12-.23.14-.25.15-.27.15-.3.17-.3.18-.34.2-.36.2-.38.2-.4.22-.4.23-.44.23-.44.25-.47.25-.48.27-.5.26-.5.28-1.06.57-.55.3-.56.3-.57.3-.58.3-.6.3-.6.32-.6.32-1.24.64-1.26.66-.65.33-.64.33-.65.33-.65.34-1.32.66-.65.33-.66.33-3.04 1.54-1.42.73-1.35.7-1.3.68-1.23.66-1.17.64-1.1.62-1.06.6-1 .6-.95.6-.9.58-.86.58-.82.57-.78.57-.73.57-.7.58-.66.58-.63.6-.6.6-.56.6-.54.62-.5.64-.5.66-.46.68-.45.7-.43.72-.4.76-.4.78-.4.82-.37.85-.37.9-.37.92-.36.96-.36 1-.36 1.05-.36 1.1-.37 1.15-.38 1.2-.38 1.25-.76 2.53-.74 2.44-.72 2.36-.7 2.28-.7 2.2-1.34 4.2-.65 2-.64 1.93-.63 1.86-.62 1.8-.62 1.75-.6 1.68-.6 1.64-.6 1.58-.6 1.54-.6 1.5-.6 1.45-.6 1.4-.6 1.37-.6 1.34-.6 1.3-.6 1.27-.6 1.25-.6 1.22-.63 1.2-.63 1.18-.65 1.17-.65 1.15-.67 1.13-.68 1.13-.7 1.12-.7 1.12-.73 1.12-.75 1.1-.77 1.12-.8 1.13-.8 1.14-.83 1.14-.86 1.16-.62.84-.6.83-.6.83-.6.83-.58.82-1.12 1.62-.54.8-.53.8-1.02 1.58-.5.8-.48.78-.47.77-.45.77-.44.77-.43.76-.42.75-.8 1.48-.37.74-.37.72-.35.72-.34.72-.32.7-.32.7-.58 1.38-.27.68-.26.67-.24.66-.23.66-.22.65-.2.64-.2.64-.17.62-.16.62-.15.6-.13.6-.12.6-.8 4h31.65l2.64.01 2.66.03 2.68.04 2.68.05 2.7.06 2.7.07 2.7.08 2.7.1 5.4.2 2.7.12 2.68.12 5.3.28 2.63.15 2.6.16 2.58.16 2.55.17 2.5.18 2.48.2 2.45.2 2.4.2 2.35.2 2.3.2 2.26.22 2.2.22 2.15.22 2.08.24 2.03.23 1.95.24 1.9.25 1.82.24 1.74.26 1.66.25 1.58.26 1.5.26 1.4.26 1.32.27 1.22.27.7.17.68.16.65.16.63.16.6.16.6.16.57.16.55.15.54.16.5.15.5.16.48.15.48.16.46.16.45.16.86.34.42.17.4.17.4.18.78.38.37.2.38.2.37.2.36.22.37.22.36.23.72.48.72.52.74.56.37.3.38.3.38.32.4.32.4.34.4.36.4.33.38.33.36.3.35.3.33.3.32.3.6.56.27.27.27.26.5.5.23.25.42.48.2.23.18.23.17.23.16.23.15.22.14.22.13.22.12.22.22.44.18.44.2.66.1.46.04.23.04.24v.24l.03.24.01.25.02.26v.26l.01.27v.55l.02.52v.24l.02.23.02.22.03.22.03.2.04.2.04.2.1.36.06.17.06.16.07.15.08.16.18.28.1.14.1.13.24.26.28.24.15.12.17.12.17.1.18.12.4.22.2.12.23.1.24.12.25.1.26.12.27.12.3.12.3.13.3.13.23.1.24.1.25.1.27.1.27.1.3.1.3.1.32.08.32.1.33.08.7.16.74.16.78.14.4.07.4.06.42.07.42.06.44.06.44.05.45.06.45.05.46.05 1.4.12.5.04.48.03.5.04.5.02.5.03 1 .04.5.01.5.02h.52l.5.01h.52l1.6.04 2.1.03.64.01h1.2l1.1-.02.5-.02.5-.02.47-.03.46-.04.44-.04.42-.05.42-.06.4-.07.4-.08.38-.08.38-.1.37-.1.37-.12.36-.12.37-.14.37-.15.37-.16.38-.17.38-.18.4-.2.4-.2.4-.23.42-.24.44-.25.45-.27.47-.3.5-.3.5-.32.54-.33.55-.35.52-.3.5-.3.5-.3.48-.28.92-.52.9-.48.88-.44.44-.2.44-.2.44-.2.44-.18.45-.18.45-.17.46-.16.47-.16.48-.16.5-.15 1.02-.28.54-.14.55-.14.56-.13.6-.13.6-.13.63-.13.66-.12.68-.13.7-.13.73-.13.77-.12.8-.13.83-.14.86-.13.9-.14.94-.14.97-.14 1-.15 15.72-2.13 64.3 6.93 2.22.25 2.1.24 1.97.23 1.85.22 3.36.4 1.5.2 1.42.18 1.32.2 1.22.18 1.14.17 1.06.17.97.17.9.17.83.16.76.17.7.16.64.17.6.17.54.17.5.18.46.18.44.2.4.2.38.2.35.2.34.22.33.22.33.24.32.24.32.26.33.27.35.28.28.24.28.23.28.2.27.2.26.2.27.2.25.18.26.17.25.17.25.16.25.15.25.14.25.13.24.13.25.12.5.22.25.1.26.1.26.08.26.1.26.07.27.07.28.07.28.06.58.1.3.05.3.04.3.03.66.06.34.03.35.01.37.02.37.01.78.02h.4l.43.01h.28l.3-.01h.56l.28-.01h.27l.27-.01h.26l.52-.02.25-.01h.24l.48-.02h.23l.22-.01.63-.03.2-.01.2-.02.36-.02.16-.02.16-.01.15-.01.14-.01.13-.02.12-.01.1-.01h.1l.1-.01.08-.01.08-.02.06-.01.05-.01.04-.01.03-.01h.02v-.04l-.01-.04-.01-.05-.01-.06-.02-.08-.03-.1-.02-.1-.03-.1-.04-.12-.04-.13-.04-.14-.05-.15-.05-.16-.05-.18-.06-.18-.06-.2-.07-.2-.06-.2-.07-.22-.08-.22-.07-.23-.08-.24-.08-.25-.1-.25-.18-.52-.1-.28-.1-.27-.3-.87-.22-.6-.1-.3-.1-.3-.12-.32-.1-.32-.12-.32-.1-.32-.12-.33-.1-.33-.12-.34-.12-.36-.12-.37-.12-.38-.26-.8-.13-.42-.13-.43-.14-.44-.13-.45-.14-.45-.28-.94-.28-.96-.14-.5-.15-.5-.42-1.5-.14-.5-.15-.5-.14-.5-.13-.5-.14-.52-.14-.5-.13-.5-.14-.5-.13-.5-.26-1-.24-.98-.24-.96-.1-.46-.1-.47-.1-.45-.1-.44-.1-.45-.1-.46-.1-.47-.12-.48-.12-.5-.26-1.02-.13-.52-.14-.53-.14-.54-.15-.54-.3-1.1-.16-.56-.15-.56-.32-1.14-.17-.57-.16-.57-1.02-3.4-.34-1.12-.17-.55-.34-1.08-.34-1.06-.16-.5-.17-.5-.32-.98-.32-.94-.15-.45-.15-.43-3.6-10.4 2.13-9.6.2-.84.18-.85.18-.84.17-.84.16-.83.15-.82.14-.82.13-.8.12-.8.12-.8.1-.8.1-.78.16-1.53.06-.74.06-.73.05-.73.04-.7.03-.7.02-.68.01-.66v-.65l-.01-.63-.02-.6-.03-.6-.03-.58-.05-.56-.06-.54-.07-.52-.07-.5-.1-.47-.1-.46-.1-.43-.1-.4-.13-.38-.13-.36-.15-.33-.15-.3-.17-.28-.17-.25-.08-.1-.08-.1-.1-.1-.1-.1-.1-.1-.12-.1-.12-.1-.13-.1-.28-.22-.15-.1-.16-.12-.17-.12-.17-.1-.17-.12-.18-.12-.38-.24-.2-.13-.2-.12-.42-.24-.2-.13-.2-.12-.22-.12-.23-.12-.22-.12-.92-.48-.24-.1-.24-.12-.23-.1-.96-.44-.48-.2-.42-.17-.42-.18-.4-.18-.4-.2-.37-.2-.37-.2-.35-.2-.34-.2-.64-.44-.3-.22-.3-.23-.28-.23-.53-.5-.48-.52-.44-.54-.2-.28-.2-.3-.18-.3-.17-.3-.16-.3-.15-.32-.14-.32-.13-.33-.12-.34-.1-.35-.1-.36-.1-.36-.08-.38-.07-.38-.06-.4-.05-.4-.04-.4-.03-.4-.03-.43-.01-.44v-.44l-.01-.33-.02-.33-.04-.33-.06-.34-.07-.33-.1-.34-.1-.34-.12-.35-.14-.35-.16-.35-.18-.35-.2-.37-.22-.36-.23-.38-.26-.37-.27-.4-.3-.4-.3-.4-.34-.4-.36-.4-.38-.43-.4-.43-.87-.9-.48-.47-.5-.47-.52-.48-.55-.5-.56-.5-.6-.52-.62-.53-.64-.54-.68-.56-.7-.57-.73-.6-.75-.6-.78-.6-.8-.63-.83-.64-.87-.66-.68-.5-.66-.5-.64-.46-.6-.45-.6-.42-.57-.4-.56-.38-.53-.37-.52-.35-.5-.34-.5-.32-.47-.3-.47-.3-.45-.27-.45-.26-.44-.24-.43-.24-.43-.22-.42-.2-.42-.2-.43-.2-.42-.18-.42-.17-.86-.32-.44-.15-.44-.14-.46-.14-.46-.13-.96-.26-.5-.12-.52-.12-.53-.1-.55-.12-.56-.1-.6-.12-.6-.1-.64-.12-.65-.12-.4-.06-.4-.06-.42-.07-.42-.06-1.3-.2-.44-.07-.44-.08-.88-.14-.44-.08-.45-.08-.44-.07-.45-.08-.44-.08-.44-.07-.88-.16-.43-.08-.43-.07-.43-.08-.42-.08-.42-.07-.4-.08-.4-.07-.4-.08-1.14-.2-.36-.07-.35-.07-.35-.06-.33-.06-.32-.07-.3-.06-.3-.05-.28-.06-.27-.05-.26-.06-3.2-.65-4.47-.87-1.4-.27-1.37-.26-1.33-.24-1.3-.23-1.28-.22-1.24-.2-1.23-.2-1.2-.2-1.18-.17-1.17-.17-1.15-.16-2.27-.28-1.13-.13-1.12-.12-1.13-.1-1.12-.1-1.14-.1-1.13-.1-1.15-.08-1.16-.07-1.18-.07-1.2-.06-2.45-.1-1.27-.04-1.3-.03-2.67-.06-1.4-.02-1.43-.01-1.47-.02-1.52-.01h-5l-5.04-.03h-1.55l-1.5-.03-1.43-.03-1.38-.03-1.33-.04-1.27-.05-1.22-.05-1.18-.06-1.13-.07-1.08-.08-1.04-.08-1-.1-.96-.1-.92-.1-.88-.12-.86-.13-.82-.13-.8-.15-.76-.16-.74-.17-.7-.18-.7-.2-.67-.2-.65-.2-.64-.23-.62-.24-.6-.25-1.18-.54-1.16-.6-.57-.32-.57-.34-.57-.35-.57-.37-.58-.38-.2-.13-.24-.14-.27-.14-.3-.16-.32-.15-.34-.16-.37-.17-.4-.17-.42-.18-.44-.18-.46-.2-.48-.18-.5-.2-.52-.2-.53-.2-.56-.2-.57-.2-.6-.2-.6-.2-.6-.22-.64-.2-.65-.2-.66-.22-.67-.22-.68-.2-1.4-.44-.7-.22-.73-.22-.72-.22-.74-.2-.75-.22-.74-.22-3.04-.84-.77-.2-1.54-.4-1.32-.34-1.27-.32-2.4-.63-1.13-.3-1.1-.3-3.02-.87-.94-.3-.9-.28-1.7-.57-.82-.3-.8-.3-.77-.3-.74-.3-.73-.3-.7-.3-.7-.32-.68-.32-.67-.33-.67-.35-.65-.35-.65-.36-.65-.38-.65-.4-.65-.4-.65-.42-.65-.43-.67-.45-.67-.48-.68-.5-.7-.5-.7-.53-.73-.56-.74-.57-.77-.6-.8-.62-.82-.64-.56-.44-.84-.6-.14-.1-.14-.1-.13-.1-.14-.08-.13-.1-.13-.08-.13-.1-.13-.08-.13-.07-.13-.08-.12-.07-.12-.06-.12-.07-.12-.06-.1-.06-.12-.06-.1-.05-.1-.05-.1-.05-.1-.04-.1-.04-.1-.03-.1-.03-.08-.03-.1-.02-.07-.02-.08-.02-.14-.02h-.06l-.27.03-.28.03z" id="A"/></defs><use xlink:href="#A"/><use xlink:href="#A" fill-opacity="0" stroke="#000" stroke-opacity="0"/></svg>